<mxfile host="app.diagrams.net" modified="2021-11-01T09:03:05.336Z" agent="5.0 (Windows NT 10.0; Win64; x64) AppleWebKit/537.36 (KHTML, like Gecko) Chrome/95.0.4638.54 Safari/537.36" etag="-ylRfk5E6d6IasHzuyrr" version="15.6.3" type="github">
  <diagram id="6a731a19-8d31-9384-78a2-239565b7b9f0" name="Page-1">
    <mxGraphModel dx="1422" dy="754" grid="1" gridSize="10" guides="1" tooltips="1" connect="1" arrows="1" fold="1" page="1" pageScale="1" pageWidth="1169" pageHeight="827" background="#003469" math="0" shadow="0">
      <root>
        <mxCell id="0" />
        <mxCell id="1" parent="0" />
        <mxCell id="2019" value="" style="rounded=1;whiteSpace=wrap;html=1;dashed=1;strokeColor=none;strokeWidth=2;fillColor=#E6E6E6;fontFamily=Verdana;fontSize=12;fontColor=#00BEF2" parent="1" vertex="1">
          <mxGeometry x="40" y="120" width="340" height="830" as="geometry" />
        </mxCell>
        <mxCell id="2020" value="" style="rounded=1;whiteSpace=wrap;html=1;dashed=1;strokeColor=none;strokeWidth=2;fillColor=#E6E6E6;fontFamily=Verdana;fontSize=12;fontColor=#00BEF2" parent="1" vertex="1">
          <mxGeometry x="403" y="120" width="340" height="830" as="geometry" />
        </mxCell>
        <mxCell id="2021" value="" style="rounded=1;whiteSpace=wrap;html=1;dashed=1;strokeColor=none;strokeWidth=2;fillColor=#E6E6E6;fontFamily=Verdana;fontSize=12;fontColor=#00BEF2" parent="1" vertex="1">
          <mxGeometry x="764" y="120" width="165" height="670" as="geometry" />
        </mxCell>
        <mxCell id="2022" value="" style="rounded=1;whiteSpace=wrap;html=1;dashed=1;strokeColor=none;strokeWidth=2;fillColor=#E6E6E6;fontFamily=Verdana;fontSize=12;fontColor=#00BEF2" parent="1" vertex="1">
          <mxGeometry x="944" y="120" width="165" height="670" as="geometry" />
        </mxCell>
        <mxCell id="2024" value="" style="rounded=1;whiteSpace=wrap;html=1;dashed=1;strokeColor=none;strokeWidth=2;fillColor=#E6E6E6;fontFamily=Verdana;fontSize=12;fontColor=#00BEF2" parent="1" vertex="1">
          <mxGeometry x="1123" y="120" width="165" height="670" as="geometry" />
        </mxCell>
        <mxCell id="2025" value="客户管理系统" style="whiteSpace=wrap;html=1;dashed=1;strokeColor=none;strokeWidth=2;fillColor=#3399FF;fontFamily=Helvetica;fontSize=18;fontColor=#FFFFFF;fontStyle=1" parent="1" vertex="1">
          <mxGeometry x="40" y="120" width="340" height="60" as="geometry" />
        </mxCell>
        <mxCell id="2026" value="项目管理系统" style="whiteSpace=wrap;html=1;dashed=1;strokeColor=none;strokeWidth=2;fillColor=#3399FF;fontFamily=Helvetica;fontSize=18;fontColor=#FFFFFF;fontStyle=1" parent="1" vertex="1">
          <mxGeometry x="403" y="120" width="340" height="60" as="geometry" />
        </mxCell>
        <mxCell id="2027" value="资料管理系统" style="whiteSpace=wrap;html=1;dashed=1;strokeColor=none;strokeWidth=2;fillColor=#3399FF;fontFamily=Helvetica;fontSize=18;fontColor=#FFFFFF;fontStyle=1" parent="1" vertex="1">
          <mxGeometry x="764" y="120" width="165" height="60" as="geometry" />
        </mxCell>
        <mxCell id="2028" value="OA系统" style="whiteSpace=wrap;html=1;dashed=1;strokeColor=none;strokeWidth=2;fillColor=#3399FF;fontFamily=Helvetica;fontSize=18;fontColor=#FFFFFF;fontStyle=1" parent="1" vertex="1">
          <mxGeometry x="944" y="120" width="165" height="60" as="geometry" />
        </mxCell>
        <mxCell id="2030" value="&amp;nbsp; &amp;nbsp;应用终端" style="whiteSpace=wrap;html=1;dashed=1;strokeColor=none;strokeWidth=2;fillColor=#3399FF;fontFamily=Helvetica;fontSize=18;fontColor=#FFFFFF;fontStyle=1" parent="1" vertex="1">
          <mxGeometry x="1123" y="120" width="165" height="60" as="geometry" />
        </mxCell>
        <mxCell id="2031" value="" style="shape=mxgraph.arrows.two_way_arrow_horizontal;html=1;verticalLabelPosition=bottom;verticalAlign=top;strokeWidth=2;strokeColor=none;dashed=1;fillColor=#FFFFFF;fontFamily=Verdana;fontSize=12;fontColor=#00BEF2" parent="1" vertex="1">
          <mxGeometry x="356" y="131" width="70" height="39" as="geometry" />
        </mxCell>
        <mxCell id="2032" value="" style="shape=mxgraph.arrows.two_way_arrow_horizontal;html=1;verticalLabelPosition=bottom;verticalAlign=top;strokeWidth=2;strokeColor=none;dashed=1;fillColor=#FFFFFF;fontFamily=Verdana;fontSize=12;fontColor=#00BEF2" parent="1" vertex="1">
          <mxGeometry x="724" y="131" width="67" height="39" as="geometry" />
        </mxCell>
        <mxCell id="2033" value="" style="shape=mxgraph.arrows.two_way_arrow_horizontal;html=1;verticalLabelPosition=bottom;verticalAlign=top;strokeWidth=2;strokeColor=none;dashed=1;fillColor=#FFFFFF;fontFamily=Verdana;fontSize=12;fontColor=#00BEF2" parent="1" vertex="1">
          <mxGeometry x="904" y="131" width="67" height="39" as="geometry" />
        </mxCell>
        <mxCell id="2035" value="" style="shape=mxgraph.arrows.two_way_arrow_horizontal;html=1;verticalLabelPosition=bottom;verticalAlign=top;strokeWidth=2;strokeColor=none;dashed=1;fillColor=#FFFFFF;fontFamily=Verdana;fontSize=12;fontColor=#00BEF2" parent="1" vertex="1">
          <mxGeometry x="1083" y="131" width="67" height="39" as="geometry" />
        </mxCell>
        <mxCell id="2047" value="工作集系统结构图" style="text;html=1;strokeColor=none;fillColor=none;align=center;verticalAlign=middle;whiteSpace=wrap;overflow=hidden;dashed=1;fontSize=36;fontColor=#FFFFFF;fontFamily=Helvetica;fontStyle=1" parent="1" vertex="1">
          <mxGeometry x="40" y="50" width="1060" height="50" as="geometry" />
        </mxCell>
        <mxCell id="2071" value="Web Dashboards" style="verticalLabelPosition=bottom;html=1;verticalAlign=top;strokeColor=none;fillColor=#3399FF;shape=mxgraph.azure.laptop;dashed=1;fontFamily=Helvetica;fontSize=14;fontColor=#004C99" parent="1" vertex="1">
          <mxGeometry x="1181" y="301" width="50" height="30" as="geometry" />
        </mxCell>
        <mxCell id="kMWCNht83CSTPItwxAai-2085" value="" style="rounded=0;whiteSpace=wrap;html=1;" vertex="1" parent="1">
          <mxGeometry x="38" y="970" width="1252" height="150" as="geometry" />
        </mxCell>
        <mxCell id="kMWCNht83CSTPItwxAai-2135" style="edgeStyle=orthogonalEdgeStyle;rounded=0;orthogonalLoop=1;jettySize=auto;html=1;exitX=0.5;exitY=1;exitDx=0;exitDy=0;entryX=0.5;entryY=0;entryDx=0;entryDy=0;" edge="1" parent="1" source="kMWCNht83CSTPItwxAai-2124" target="kMWCNht83CSTPItwxAai-2131">
          <mxGeometry relative="1" as="geometry" />
        </mxCell>
        <mxCell id="kMWCNht83CSTPItwxAai-2124" value="任务计划" style="swimlane;" vertex="1" parent="1">
          <mxGeometry x="50" y="199" width="320" height="121" as="geometry" />
        </mxCell>
        <mxCell id="kMWCNht83CSTPItwxAai-2126" value="分配任务" style="rounded=0;whiteSpace=wrap;html=1;" vertex="1" parent="kMWCNht83CSTPItwxAai-2124">
          <mxGeometry x="121" y="31" width="80" height="30" as="geometry" />
        </mxCell>
        <mxCell id="kMWCNht83CSTPItwxAai-2128" style="edgeStyle=orthogonalEdgeStyle;rounded=0;orthogonalLoop=1;jettySize=auto;html=1;exitX=1;exitY=0.5;exitDx=0;exitDy=0;entryX=0;entryY=0.5;entryDx=0;entryDy=0;" edge="1" parent="kMWCNht83CSTPItwxAai-2124" source="kMWCNht83CSTPItwxAai-2125" target="kMWCNht83CSTPItwxAai-2126">
          <mxGeometry relative="1" as="geometry" />
        </mxCell>
        <mxCell id="kMWCNht83CSTPItwxAai-2125" value="计划创建" style="rounded=0;whiteSpace=wrap;html=1;" vertex="1" parent="kMWCNht83CSTPItwxAai-2124">
          <mxGeometry x="21" y="31" width="80" height="30" as="geometry" />
        </mxCell>
        <mxCell id="kMWCNht83CSTPItwxAai-2136" value="线索管理" style="rounded=0;whiteSpace=wrap;html=1;" vertex="1" parent="kMWCNht83CSTPItwxAai-2124">
          <mxGeometry x="220" y="81" width="80" height="30" as="geometry" />
        </mxCell>
        <mxCell id="kMWCNht83CSTPItwxAai-2137" style="edgeStyle=orthogonalEdgeStyle;rounded=0;orthogonalLoop=1;jettySize=auto;html=1;exitX=0.5;exitY=1;exitDx=0;exitDy=0;entryX=0.5;entryY=0;entryDx=0;entryDy=0;" edge="1" parent="1" source="kMWCNht83CSTPItwxAai-2127" target="kMWCNht83CSTPItwxAai-2136">
          <mxGeometry relative="1" as="geometry" />
        </mxCell>
        <mxCell id="kMWCNht83CSTPItwxAai-2127" value="跟踪任务" style="rounded=0;whiteSpace=wrap;html=1;" vertex="1" parent="1">
          <mxGeometry x="271" y="230" width="80" height="30" as="geometry" />
        </mxCell>
        <mxCell id="kMWCNht83CSTPItwxAai-2129" style="edgeStyle=orthogonalEdgeStyle;rounded=0;orthogonalLoop=1;jettySize=auto;html=1;exitX=1;exitY=0.5;exitDx=0;exitDy=0;entryX=0;entryY=0.5;entryDx=0;entryDy=0;" edge="1" parent="1" source="kMWCNht83CSTPItwxAai-2126" target="kMWCNht83CSTPItwxAai-2127">
          <mxGeometry relative="1" as="geometry" />
        </mxCell>
        <mxCell id="kMWCNht83CSTPItwxAai-2165" value="" style="edgeStyle=orthogonalEdgeStyle;rounded=0;orthogonalLoop=1;jettySize=auto;html=1;fontColor=#FF0000;" edge="1" parent="1" source="kMWCNht83CSTPItwxAai-2131" target="kMWCNht83CSTPItwxAai-2159">
          <mxGeometry relative="1" as="geometry" />
        </mxCell>
        <mxCell id="kMWCNht83CSTPItwxAai-2131" value="客户管理" style="swimlane;" vertex="1" parent="1">
          <mxGeometry x="50" y="368" width="320" height="200" as="geometry">
            <mxRectangle x="50" y="368" width="80" height="23" as="alternateBounds" />
          </mxGeometry>
        </mxCell>
        <mxCell id="kMWCNht83CSTPItwxAai-2132" value="客户管理" style="rounded=0;whiteSpace=wrap;html=1;" vertex="1" parent="kMWCNht83CSTPItwxAai-2131">
          <mxGeometry x="121" y="31" width="80" height="30" as="geometry" />
        </mxCell>
        <mxCell id="kMWCNht83CSTPItwxAai-2133" style="edgeStyle=orthogonalEdgeStyle;rounded=0;orthogonalLoop=1;jettySize=auto;html=1;exitX=1;exitY=0.5;exitDx=0;exitDy=0;entryX=0;entryY=0.5;entryDx=0;entryDy=0;" edge="1" parent="kMWCNht83CSTPItwxAai-2131" source="kMWCNht83CSTPItwxAai-2134" target="kMWCNht83CSTPItwxAai-2132">
          <mxGeometry relative="1" as="geometry" />
        </mxCell>
        <mxCell id="kMWCNht83CSTPItwxAai-2134" value="创建客户" style="rounded=0;whiteSpace=wrap;html=1;" vertex="1" parent="kMWCNht83CSTPItwxAai-2131">
          <mxGeometry x="21" y="31" width="80" height="30" as="geometry" />
        </mxCell>
        <mxCell id="kMWCNht83CSTPItwxAai-2145" value="日程管理" style="rounded=0;whiteSpace=wrap;html=1;" vertex="1" parent="kMWCNht83CSTPItwxAai-2131">
          <mxGeometry x="21" y="85" width="80" height="30" as="geometry" />
        </mxCell>
        <mxCell id="kMWCNht83CSTPItwxAai-2151" value="&lt;font color=&quot;#ff0000&quot;&gt;生成订单&lt;/font&gt;" style="rounded=0;whiteSpace=wrap;html=1;" vertex="1" parent="kMWCNht83CSTPItwxAai-2131">
          <mxGeometry x="220" y="142" width="80" height="30" as="geometry" />
        </mxCell>
        <mxCell id="kMWCNht83CSTPItwxAai-2138" value="数据统计" style="rounded=0;whiteSpace=wrap;html=1;" vertex="1" parent="1">
          <mxGeometry x="170" y="280" width="80" height="30" as="geometry" />
        </mxCell>
        <mxCell id="kMWCNht83CSTPItwxAai-2140" style="edgeStyle=orthogonalEdgeStyle;rounded=0;orthogonalLoop=1;jettySize=auto;html=1;exitX=0;exitY=0.5;exitDx=0;exitDy=0;entryX=1;entryY=0.5;entryDx=0;entryDy=0;" edge="1" parent="1" source="kMWCNht83CSTPItwxAai-2136" target="kMWCNht83CSTPItwxAai-2138">
          <mxGeometry relative="1" as="geometry" />
        </mxCell>
        <mxCell id="kMWCNht83CSTPItwxAai-2146" style="edgeStyle=orthogonalEdgeStyle;rounded=0;orthogonalLoop=1;jettySize=auto;html=1;exitX=0.5;exitY=1;exitDx=0;exitDy=0;" edge="1" parent="1" source="kMWCNht83CSTPItwxAai-2141" target="kMWCNht83CSTPItwxAai-2143">
          <mxGeometry relative="1" as="geometry" />
        </mxCell>
        <mxCell id="kMWCNht83CSTPItwxAai-2141" value="人脉管理" style="rounded=0;whiteSpace=wrap;html=1;" vertex="1" parent="1">
          <mxGeometry x="271" y="399" width="80" height="30" as="geometry" />
        </mxCell>
        <mxCell id="kMWCNht83CSTPItwxAai-2142" style="edgeStyle=orthogonalEdgeStyle;rounded=0;orthogonalLoop=1;jettySize=auto;html=1;exitX=1;exitY=0.5;exitDx=0;exitDy=0;" edge="1" parent="1" source="kMWCNht83CSTPItwxAai-2132" target="kMWCNht83CSTPItwxAai-2141">
          <mxGeometry relative="1" as="geometry" />
        </mxCell>
        <mxCell id="kMWCNht83CSTPItwxAai-2147" style="edgeStyle=orthogonalEdgeStyle;rounded=0;orthogonalLoop=1;jettySize=auto;html=1;exitX=0;exitY=0.5;exitDx=0;exitDy=0;entryX=1;entryY=0.5;entryDx=0;entryDy=0;" edge="1" parent="1" source="kMWCNht83CSTPItwxAai-2143" target="kMWCNht83CSTPItwxAai-2144">
          <mxGeometry relative="1" as="geometry" />
        </mxCell>
        <mxCell id="kMWCNht83CSTPItwxAai-2143" value="跟进计划" style="rounded=0;whiteSpace=wrap;html=1;" vertex="1" parent="1">
          <mxGeometry x="271" y="453" width="80" height="30" as="geometry" />
        </mxCell>
        <mxCell id="kMWCNht83CSTPItwxAai-2148" style="edgeStyle=orthogonalEdgeStyle;rounded=0;orthogonalLoop=1;jettySize=auto;html=1;exitX=0;exitY=0.5;exitDx=0;exitDy=0;entryX=1;entryY=0.5;entryDx=0;entryDy=0;" edge="1" parent="1" source="kMWCNht83CSTPItwxAai-2144" target="kMWCNht83CSTPItwxAai-2145">
          <mxGeometry relative="1" as="geometry" />
        </mxCell>
        <mxCell id="kMWCNht83CSTPItwxAai-2144" value="跟进日志" style="rounded=0;whiteSpace=wrap;html=1;" vertex="1" parent="1">
          <mxGeometry x="170" y="453" width="80" height="30" as="geometry" />
        </mxCell>
        <mxCell id="kMWCNht83CSTPItwxAai-2149" value="需求管理" style="rounded=0;whiteSpace=wrap;html=1;" vertex="1" parent="1">
          <mxGeometry x="70" y="510" width="80" height="30" as="geometry" />
        </mxCell>
        <mxCell id="kMWCNht83CSTPItwxAai-2150" style="edgeStyle=orthogonalEdgeStyle;rounded=0;orthogonalLoop=1;jettySize=auto;html=1;exitX=0.5;exitY=1;exitDx=0;exitDy=0;entryX=0.5;entryY=0;entryDx=0;entryDy=0;" edge="1" parent="1" source="kMWCNht83CSTPItwxAai-2145" target="kMWCNht83CSTPItwxAai-2149">
          <mxGeometry relative="1" as="geometry" />
        </mxCell>
        <mxCell id="kMWCNht83CSTPItwxAai-2152" value="" style="endArrow=none;dashed=1;html=1;dashPattern=1 3;strokeWidth=2;rounded=0;exitX=1;exitY=0.5;exitDx=0;exitDy=0;entryX=0;entryY=0.5;entryDx=0;entryDy=0;" edge="1" parent="1" source="kMWCNht83CSTPItwxAai-2149" target="kMWCNht83CSTPItwxAai-2151">
          <mxGeometry width="50" height="50" relative="1" as="geometry">
            <mxPoint x="170" y="550" as="sourcePoint" />
            <mxPoint x="220" y="500" as="targetPoint" />
          </mxGeometry>
        </mxCell>
        <mxCell id="kMWCNht83CSTPItwxAai-2187" value="" style="edgeStyle=orthogonalEdgeStyle;rounded=0;orthogonalLoop=1;jettySize=auto;html=1;fontColor=#FF0000;" edge="1" parent="1" source="kMWCNht83CSTPItwxAai-2159" target="kMWCNht83CSTPItwxAai-2175">
          <mxGeometry relative="1" as="geometry" />
        </mxCell>
        <mxCell id="kMWCNht83CSTPItwxAai-2159" value="订单管理" style="swimlane;" vertex="1" parent="1">
          <mxGeometry x="50" y="620" width="320" height="120" as="geometry">
            <mxRectangle x="50" y="620" width="80" height="23" as="alternateBounds" />
          </mxGeometry>
        </mxCell>
        <mxCell id="kMWCNht83CSTPItwxAai-2160" value="订单管理" style="rounded=0;whiteSpace=wrap;html=1;" vertex="1" parent="kMWCNht83CSTPItwxAai-2159">
          <mxGeometry x="121" y="31" width="80" height="30" as="geometry" />
        </mxCell>
        <mxCell id="kMWCNht83CSTPItwxAai-2161" style="edgeStyle=orthogonalEdgeStyle;rounded=0;orthogonalLoop=1;jettySize=auto;html=1;exitX=1;exitY=0.5;exitDx=0;exitDy=0;entryX=0;entryY=0.5;entryDx=0;entryDy=0;" edge="1" parent="kMWCNht83CSTPItwxAai-2159" source="kMWCNht83CSTPItwxAai-2162" target="kMWCNht83CSTPItwxAai-2160">
          <mxGeometry relative="1" as="geometry" />
        </mxCell>
        <mxCell id="kMWCNht83CSTPItwxAai-2162" value="创建订单" style="rounded=0;whiteSpace=wrap;html=1;" vertex="1" parent="kMWCNht83CSTPItwxAai-2159">
          <mxGeometry x="21" y="31" width="80" height="30" as="geometry" />
        </mxCell>
        <mxCell id="kMWCNht83CSTPItwxAai-2163" value="订单跟进" style="rounded=0;whiteSpace=wrap;html=1;" vertex="1" parent="kMWCNht83CSTPItwxAai-2159">
          <mxGeometry x="220" y="80" width="80" height="30" as="geometry" />
        </mxCell>
        <mxCell id="kMWCNht83CSTPItwxAai-2164" value="&lt;font color=&quot;#ff0000&quot;&gt;财务审批&lt;/font&gt;" style="rounded=0;whiteSpace=wrap;html=1;" vertex="1" parent="kMWCNht83CSTPItwxAai-2159">
          <mxGeometry x="120" y="80" width="80" height="30" as="geometry" />
        </mxCell>
        <mxCell id="kMWCNht83CSTPItwxAai-2170" value="" style="endArrow=none;dashed=1;html=1;dashPattern=1 3;strokeWidth=2;rounded=0;exitX=1;exitY=0.5;exitDx=0;exitDy=0;entryX=0;entryY=0.5;entryDx=0;entryDy=0;" edge="1" parent="kMWCNht83CSTPItwxAai-2159" source="kMWCNht83CSTPItwxAai-2164" target="kMWCNht83CSTPItwxAai-2163">
          <mxGeometry width="50" height="50" relative="1" as="geometry">
            <mxPoint x="120" y="150" as="sourcePoint" />
            <mxPoint x="240" y="150" as="targetPoint" />
          </mxGeometry>
        </mxCell>
        <mxCell id="kMWCNht83CSTPItwxAai-2171" value="&lt;font color=&quot;#ff0000&quot;&gt;项目创建&lt;/font&gt;" style="rounded=0;whiteSpace=wrap;html=1;" vertex="1" parent="kMWCNht83CSTPItwxAai-2159">
          <mxGeometry x="21" y="80" width="80" height="30" as="geometry" />
        </mxCell>
        <mxCell id="kMWCNht83CSTPItwxAai-2166" value="合同管理" style="rounded=0;whiteSpace=wrap;html=1;" vertex="1" parent="kMWCNht83CSTPItwxAai-2159">
          <mxGeometry x="220" y="31" width="80" height="30" as="geometry" />
        </mxCell>
        <mxCell id="kMWCNht83CSTPItwxAai-2168" style="edgeStyle=orthogonalEdgeStyle;rounded=0;orthogonalLoop=1;jettySize=auto;html=1;exitX=1;exitY=0.5;exitDx=0;exitDy=0;entryX=0;entryY=0.5;entryDx=0;entryDy=0;fontColor=#FF0000;" edge="1" parent="kMWCNht83CSTPItwxAai-2159" source="kMWCNht83CSTPItwxAai-2160" target="kMWCNht83CSTPItwxAai-2166">
          <mxGeometry relative="1" as="geometry" />
        </mxCell>
        <mxCell id="kMWCNht83CSTPItwxAai-2169" style="edgeStyle=orthogonalEdgeStyle;rounded=0;orthogonalLoop=1;jettySize=auto;html=1;exitX=0.5;exitY=1;exitDx=0;exitDy=0;entryX=0.5;entryY=0;entryDx=0;entryDy=0;fontColor=#FF0000;" edge="1" parent="kMWCNht83CSTPItwxAai-2159" source="kMWCNht83CSTPItwxAai-2166" target="kMWCNht83CSTPItwxAai-2163">
          <mxGeometry relative="1" as="geometry" />
        </mxCell>
        <mxCell id="kMWCNht83CSTPItwxAai-2174" value="" style="endArrow=none;dashed=1;html=1;dashPattern=1 3;strokeWidth=2;rounded=0;exitX=1;exitY=0.5;exitDx=0;exitDy=0;entryX=0;entryY=0.5;entryDx=0;entryDy=0;" edge="1" parent="kMWCNht83CSTPItwxAai-2159" source="kMWCNht83CSTPItwxAai-2171" target="kMWCNht83CSTPItwxAai-2164">
          <mxGeometry width="50" height="50" relative="1" as="geometry">
            <mxPoint x="210" y="105" as="sourcePoint" />
            <mxPoint x="230" y="105" as="targetPoint" />
          </mxGeometry>
        </mxCell>
        <mxCell id="kMWCNht83CSTPItwxAai-2175" value="公海管理" style="swimlane;" vertex="1" parent="1">
          <mxGeometry x="50" y="790" width="320" height="120" as="geometry">
            <mxRectangle x="50" y="620" width="80" height="23" as="alternateBounds" />
          </mxGeometry>
        </mxCell>
        <mxCell id="kMWCNht83CSTPItwxAai-2176" value="公海规则" style="rounded=0;whiteSpace=wrap;html=1;" vertex="1" parent="kMWCNht83CSTPItwxAai-2175">
          <mxGeometry x="121" y="31" width="80" height="30" as="geometry" />
        </mxCell>
        <mxCell id="kMWCNht83CSTPItwxAai-2177" style="edgeStyle=orthogonalEdgeStyle;rounded=0;orthogonalLoop=1;jettySize=auto;html=1;exitX=1;exitY=0.5;exitDx=0;exitDy=0;entryX=0;entryY=0.5;entryDx=0;entryDy=0;" edge="1" parent="kMWCNht83CSTPItwxAai-2175" source="kMWCNht83CSTPItwxAai-2178" target="kMWCNht83CSTPItwxAai-2176">
          <mxGeometry relative="1" as="geometry" />
        </mxCell>
        <mxCell id="kMWCNht83CSTPItwxAai-2178" value="客户投放" style="rounded=0;whiteSpace=wrap;html=1;" vertex="1" parent="kMWCNht83CSTPItwxAai-2175">
          <mxGeometry x="21" y="31" width="80" height="30" as="geometry" />
        </mxCell>
        <mxCell id="kMWCNht83CSTPItwxAai-2179" value="需求管理" style="rounded=0;whiteSpace=wrap;html=1;" vertex="1" parent="kMWCNht83CSTPItwxAai-2175">
          <mxGeometry x="220" y="80" width="80" height="30" as="geometry" />
        </mxCell>
        <mxCell id="kMWCNht83CSTPItwxAai-2180" value="&lt;font color=&quot;#ff0000&quot;&gt;生成订单&lt;/font&gt;" style="rounded=0;whiteSpace=wrap;html=1;" vertex="1" parent="kMWCNht83CSTPItwxAai-2175">
          <mxGeometry x="21" y="80" width="80" height="30" as="geometry" />
        </mxCell>
        <mxCell id="kMWCNht83CSTPItwxAai-2181" value="" style="endArrow=none;dashed=1;html=1;dashPattern=1 3;strokeWidth=2;rounded=0;exitX=1;exitY=0.5;exitDx=0;exitDy=0;entryX=0;entryY=0.5;entryDx=0;entryDy=0;" edge="1" parent="kMWCNht83CSTPItwxAai-2175" source="kMWCNht83CSTPItwxAai-2180" target="kMWCNht83CSTPItwxAai-2179">
          <mxGeometry width="50" height="50" relative="1" as="geometry">
            <mxPoint x="120" y="150" as="sourcePoint" />
            <mxPoint x="240" y="150" as="targetPoint" />
          </mxGeometry>
        </mxCell>
        <mxCell id="kMWCNht83CSTPItwxAai-2183" value="客户转移" style="rounded=0;whiteSpace=wrap;html=1;" vertex="1" parent="kMWCNht83CSTPItwxAai-2175">
          <mxGeometry x="220" y="31" width="80" height="30" as="geometry" />
        </mxCell>
        <mxCell id="kMWCNht83CSTPItwxAai-2184" style="edgeStyle=orthogonalEdgeStyle;rounded=0;orthogonalLoop=1;jettySize=auto;html=1;exitX=1;exitY=0.5;exitDx=0;exitDy=0;entryX=0;entryY=0.5;entryDx=0;entryDy=0;fontColor=#FF0000;" edge="1" parent="kMWCNht83CSTPItwxAai-2175" source="kMWCNht83CSTPItwxAai-2176" target="kMWCNht83CSTPItwxAai-2183">
          <mxGeometry relative="1" as="geometry" />
        </mxCell>
        <mxCell id="kMWCNht83CSTPItwxAai-2185" style="edgeStyle=orthogonalEdgeStyle;rounded=0;orthogonalLoop=1;jettySize=auto;html=1;exitX=0.5;exitY=1;exitDx=0;exitDy=0;entryX=0.5;entryY=0;entryDx=0;entryDy=0;fontColor=#FF0000;" edge="1" parent="kMWCNht83CSTPItwxAai-2175" source="kMWCNht83CSTPItwxAai-2183" target="kMWCNht83CSTPItwxAai-2179">
          <mxGeometry relative="1" as="geometry" />
        </mxCell>
      </root>
    </mxGraphModel>
  </diagram>
</mxfile>
